# xmcd
#
# Track frame offsets: 
#        150
#        14983
#        29419
#        44559
#        57410
#        71770
#        87461
#        100872
#        113286
#        126745
#        138935
#        153025
#        166773
#        177828
#        193396
#        206485
#        221703
#        232555
#        247415
#        261736
#        274733
#        287694
#        302055
#        317338
#        329017
#        340866
#
# Disc length: 4722 seconds
#
# Revision: 1
# Processed by: cddbd v1.5.2PL0 Copyright (c) Steve Scherf et al.
# Submitted via: ExactAudioCopyFreeDBPlugin 1.0
#
DISCID=9212701a
DTITLE=Various Artist - Really The Blues A Blues History - Vol 1 (189
DTITLE=3-1929) [Cd4]
DYEAR=2010
DGENRE=Blues
TTITLE0=Dranes 1926 - Lamb's Blood Has Washed Me Clean
TTITLE1=Dranes 1926 - I Shall Wear A Crown
TTITLE2=Cookie's Ginger Snaps 1926 - High Fever
TTITLE3=Homer Quincy Smith 1926 - I Want Jesus To Walk With Me
TTITLE4=Hazel Meyers 1926 - Blackville
TTITLE5=Nolan Welsh 1926 - Bridwell Blues
TTITLE6=JR Morton 1926 - Fat Meat And Greens
TTITLE7=Sam Butler 1926 - Christians Fight On Your Time Ain't Long
TTITLE8=Blind Lemon Jefferson 1926 - Got The Blues
TTITLE9=Blind Lemon Jefferson 1926 - Choc House Blues
TTITLE10=Paul Whiteman 1926 - Birth Of The Blues
TTITLE11=Sam Mc Gee 1926 - Knoxville Blues
TTITLE12=Arizona Dranes 1926 - My Soul Is A Witness
TTITLE13=JR Morton 1926 - Smoke House Blues
TTITLE14=Red Nichols and Miff Mole 1926 - Boneyard Shuffle
TTITLE15=Blind Willie Johnson 1926 - Motherless Children
TTITLE16=Jeanette's Synco Jazzers 1926 - The Bumps
TTITLE17=Sol Hoopi 1926 - Tin Roof Blues
TTITLE18=Andrew And Jim Baxter 1926 - Bamalong Blues
TTITLE19=Sam And Kirk Mc Gee 1927 - Hanna Won't You The Door
TTITLE20=Henry Thomas 1927 - Honey Just Allow Me One More Chance
TTITLE21=Richard Rabbi Brown 1927 - James Alley Blues
TTITLE22=Dumaine's Jazzola Eight 1927 - Franklin Street Blues
TTITLE23=Reb Spikes 1927 - Fight That Thing
TTITLE24=Johny Dodds 1927 - Clarinet Wooble
TTITLE25=South Georgia Highballers 1927 - Mr Johnson Turn Me Loose
EXTD=
EXTT0=
EXTT1=
EXTT2=
EXTT3=
EXTT4=
EXTT5=
EXTT6=
EXTT7=
EXTT8=
EXTT9=
EXTT10=
EXTT11=
EXTT12=
EXTT13=
EXTT14=
EXTT15=
EXTT16=
EXTT17=
EXTT18=
EXTT19=
EXTT20=
EXTT21=
EXTT22=
EXTT23=
EXTT24=
EXTT25=
PLAYORDER=
